<svg width="500" height="500" viewBox="0 0 500 500" fill="none" xmlns="http://www.w3.org/2000/svg">
<path fill-rule="evenodd" clip-rule="evenodd" d="M250 471.023C332.843 471.023 400 463.214 400 453.581C400 443.949 332.843 436.14 250 436.14C167.157 436.14 100 443.949 100 453.581C100 463.214 167.157 471.023 250 471.023Z" fill="#F7F9FA"/>
<path fill-rule="evenodd" clip-rule="evenodd" d="M248.256 460.558C281.971 460.558 309.302 457.435 309.302 453.581C309.302 449.728 281.971 446.605 248.256 446.605C214.541 446.605 187.209 449.728 187.209 453.581C187.209 457.435 214.541 460.558 248.256 460.558Z" fill="#E9EAEC"/>
<path fill-rule="evenodd" clip-rule="evenodd" d="M332.704 249.014C332.704 253.717 328.891 257.526 324.192 257.526C319.49 257.526 315.681 253.717 315.681 249.014C315.681 244.312 319.49 240.503 324.192 240.503C328.891 240.503 332.704 244.312 332.704 249.014" fill="#4D4C4E"/>
<path fill-rule="evenodd" clip-rule="evenodd" d="M345.172 228.524C345.172 233.226 341.359 237.036 336.661 237.036C331.958 237.036 328.149 233.226 328.149 228.524C328.149 223.822 331.958 220.013 336.661 220.013C341.359 220.013 345.172 223.822 345.172 228.524" fill="#4D4C4E"/>
<path fill-rule="evenodd" clip-rule="evenodd" d="M339.777 240.842C339.777 245.545 335.965 249.354 331.266 249.354C326.563 249.354 322.754 245.545 322.754 240.842C322.754 236.14 326.563 232.331 331.266 232.331C335.965 232.331 339.777 236.14 339.777 240.842" fill="#4D4C4E"/>
<path fill-rule="evenodd" clip-rule="evenodd" d="M364.126 217.56C364.126 222.262 360.313 226.071 355.614 226.071C350.912 226.071 347.103 222.262 347.103 217.56C347.103 212.857 350.912 209.048 355.614 209.048C360.313 209.048 364.126 212.857 364.126 217.56" fill="#4D4C4E"/>
<path fill-rule="evenodd" clip-rule="evenodd" d="M369.571 185.101C369.571 189.803 365.758 193.613 361.06 193.613C356.357 193.613 352.548 189.803 352.548 185.101C352.548 180.399 356.357 176.589 361.06 176.589C365.758 176.589 369.571 180.399 369.571 185.101" fill="#4D4C4E"/>
<path fill-rule="evenodd" clip-rule="evenodd" d="M367.243 199.198C367.243 205.62 362.035 210.828 355.613 210.828C349.191 210.828 343.983 205.62 343.983 199.198C343.983 192.776 349.191 187.568 355.613 187.568C362.035 187.568 367.243 192.776 367.243 199.198" fill="#4D4C4E"/>
<path fill-rule="evenodd" clip-rule="evenodd" d="M356.556 183.565C356.556 188.546 352.52 192.582 347.538 192.582C342.557 192.582 338.521 188.546 338.521 183.565C338.521 178.583 342.557 174.547 347.538 174.547C352.52 174.547 356.556 178.583 356.556 183.565" fill="#4D4C4E"/>
<path fill-rule="evenodd" clip-rule="evenodd" d="M358.779 191.996C358.779 196.698 354.967 200.507 350.268 200.507C345.565 200.507 341.756 196.698 341.756 191.996C341.756 187.293 345.565 183.484 350.268 183.484C354.967 183.484 358.779 187.293 358.779 191.996" fill="#4D4C4E"/>
<path fill-rule="evenodd" clip-rule="evenodd" d="M339.491 249.803C339.491 252.332 337.444 254.38 334.915 254.38C332.386 254.38 330.338 252.332 330.338 249.803C330.338 247.274 332.386 245.226 334.915 245.226C337.444 245.226 339.491 247.274 339.491 249.803" fill="#4D4C4E"/>
<path fill-rule="evenodd" clip-rule="evenodd" d="M274.801 302.333H225.964C189.361 302.333 159.685 332.008 159.685 368.612V400.007C159.685 407.713 165.933 413.96 173.638 413.96H327.127C334.833 413.96 341.08 407.713 341.08 400.007V368.612C341.08 332.008 311.405 302.333 274.801 302.333" fill="#B68F65"/>
<path fill-rule="evenodd" clip-rule="evenodd" d="M250.383 330.24V330.24C238.822 330.24 229.452 320.87 229.452 309.309V260.472H271.313V309.309C271.313 320.87 261.943 330.24 250.383 330.24" fill="#B68F65"/>
<path opacity="0.2" fill-rule="evenodd" clip-rule="evenodd" d="M271.313 291.867C271.313 291.867 255.689 295.356 250.383 295.356C245.077 295.356 229.452 291.867 229.452 291.867V284.891C229.452 284.891 245.077 288.379 250.383 288.379C255.689 288.379 271.313 284.891 271.313 284.891V291.867Z" fill="#292929"/>
<path fill-rule="evenodd" clip-rule="evenodd" d="M166.118 209.124C166.118 214.915 161.423 219.607 155.635 219.607C149.845 219.607 145.149 214.915 145.149 209.124C145.149 203.334 149.845 198.642 155.635 198.642C161.423 198.642 166.118 203.334 166.118 209.124" fill="#4D4C4E"/>
<path fill-rule="evenodd" clip-rule="evenodd" d="M158.297 191.996C158.297 203.239 149.182 212.354 137.939 212.354C126.693 212.354 117.578 203.239 117.578 191.996C117.578 180.753 126.693 171.638 137.939 171.638C149.182 171.638 158.297 180.753 158.297 191.996" fill="#4D4C4E"/>
<path fill-rule="evenodd" clip-rule="evenodd" d="M157.766 219.608C157.766 225.636 152.879 230.523 146.851 230.523C140.823 230.523 135.936 225.636 135.936 219.608C135.936 213.58 140.823 208.693 146.851 208.693C152.879 208.693 157.766 213.58 157.766 219.608" fill="#4D4C4E"/>
<path fill-rule="evenodd" clip-rule="evenodd" d="M175.398 238.012C175.398 245.896 169.007 252.287 161.124 252.287C153.24 252.287 146.853 245.896 146.853 238.012C146.853 230.128 153.24 223.738 161.124 223.738C169.007 223.738 175.398 230.128 175.398 238.012" fill="#4D4C4E"/>
<path fill-rule="evenodd" clip-rule="evenodd" d="M189.689 257.065C189.689 264.733 183.473 270.946 175.809 270.946C168.142 270.946 161.925 264.733 161.925 257.065C161.925 249.401 168.142 243.185 175.809 243.185C183.473 243.185 189.689 249.401 189.689 257.065" fill="#4D4C4E"/>
<path fill-rule="evenodd" clip-rule="evenodd" d="M365.499 162.798C365.499 226.373 313.958 277.914 250.383 277.914C186.807 277.914 135.266 226.373 135.266 162.798C135.266 99.2221 186.807 47.6814 250.383 47.6814C313.958 47.6814 365.499 99.2221 365.499 162.798" fill="#4D4C4E"/>
<path fill-rule="evenodd" clip-rule="evenodd" d="M343.418 181.356C343.418 233.224 301.369 275.273 249.5 275.273C197.632 275.273 155.583 233.224 155.583 181.356C155.583 129.487 197.632 87.4384 249.5 87.4384C301.369 87.4384 343.418 129.487 343.418 181.356" fill="#4D4C4E"/>
<path fill-rule="evenodd" clip-rule="evenodd" d="M198.057 201.17C198.057 210.801 190.247 218.612 180.615 218.612C170.984 218.612 163.173 210.801 163.173 201.17C163.173 191.538 170.984 183.728 180.615 183.728C190.247 183.728 198.057 191.538 198.057 201.17" fill="#8C7052"/>
<path fill-rule="evenodd" clip-rule="evenodd" d="M173.641 215.124C177.495 215.124 180.617 219.031 180.614 223.845C180.614 225.822 180.087 227.647 179.198 229.112C177.924 231.208 175.908 232.565 173.637 232.565C169.782 232.565 166.66 228.658 166.66 223.841C166.664 219.027 169.786 215.124 173.641 215.124V215.124Z" stroke="#FEC94B"/>
<path fill-rule="evenodd" clip-rule="evenodd" d="M337.592 201.17C337.592 210.801 329.782 218.612 320.15 218.612C310.519 218.612 302.708 210.801 302.708 201.17C302.708 191.538 310.519 183.728 320.15 183.728C329.782 183.728 337.592 191.538 337.592 201.17" fill="#8C7052"/>
<path fill-rule="evenodd" clip-rule="evenodd" d="M327.129 215.124C330.984 215.124 334.106 219.031 334.102 223.845C334.102 225.822 333.575 227.647 332.686 229.112C331.413 231.208 329.396 232.565 327.125 232.565C323.271 232.565 320.149 228.658 320.149 223.841C320.152 219.027 323.274 215.124 327.129 215.124V215.124Z" stroke="#FEC94B"/>
<mask id="mask0" mask-type="alpha" maskUnits="userSpaceOnUse" x="198" y="396" width="105" height="57">
<path fill-rule="evenodd" clip-rule="evenodd" d="M198.057 452.333H302.708V396.52H198.057V452.333V452.333Z" fill="white"/>
</mask>
<g mask="url(#mask0)">
<path fill-rule="evenodd" clip-rule="evenodd" d="M302.708 412.866C302.708 434.661 279.28 452.334 250.383 452.334C221.485 452.334 198.057 434.661 198.057 412.866C198.057 391.071 302.708 391.071 302.708 412.866" fill="#EAC463"/>
</g>
<path fill-rule="evenodd" clip-rule="evenodd" d="M250.383 288.379V288.379C207.999 288.379 173.638 254.019 173.638 211.635V145.356C173.638 102.972 207.999 68.6116 250.383 68.6116V68.6116C292.766 68.6116 327.127 102.972 327.127 145.356V211.635C327.127 254.019 292.766 288.379 250.383 288.379" fill="#B68F65"/>
<path fill-rule="evenodd" clip-rule="evenodd" d="M288.755 202.914C288.755 205.802 286.411 208.147 283.522 208.147C280.634 208.147 278.29 205.802 278.29 202.914C278.29 200.026 280.634 197.681 283.522 197.681C286.411 197.681 288.755 200.026 288.755 202.914" fill="#2D2D2D"/>
<path fill-rule="evenodd" clip-rule="evenodd" d="M222.476 202.914C222.476 205.802 220.132 208.147 217.243 208.147C214.355 208.147 212.011 205.802 212.011 202.914C212.011 200.026 214.355 197.681 217.243 197.681C220.132 197.681 222.476 200.026 222.476 202.914" fill="#2D2D2D"/>
<path d="M254.824 228.457C252.665 230.864 247.931 230.958 245.943 228.464" stroke="#997862" stroke-width="2" stroke-linecap="round"/>
<path d="M259.528 260.194C255.08 265.148 245.337 265.343 241.239 260.205" stroke="#ED3A52" stroke-width="2" stroke-linecap="round"/>
<path d="M217.132 180.422C210.12 179.906 203.932 183.722 201.545 188.581" stroke="#4D4C4E" stroke-width="2" stroke-linecap="round"/>
<path d="M283.634 180.422C290.645 179.906 296.834 183.722 299.22 188.581" stroke="#4D4C4E" stroke-width="2" stroke-linecap="round"/>
<path fill-rule="evenodd" clip-rule="evenodd" d="M374.9 157.478C374.9 166.195 367.833 173.263 359.115 173.263C350.398 173.263 343.33 166.195 343.33 157.478C343.33 148.76 350.398 141.693 359.115 141.693C367.833 141.693 374.9 148.76 374.9 157.478" fill="#4D4C4E"/>
<path fill-rule="evenodd" clip-rule="evenodd" d="M197.701 149.128C197.701 151.658 195.653 153.705 193.124 153.705C190.595 153.705 188.547 151.658 188.547 149.128C188.547 146.599 190.595 144.552 193.124 144.552C195.653 144.552 197.701 146.599 197.701 149.128" fill="#4D4C4E"/>
<path fill-rule="evenodd" clip-rule="evenodd" d="M154.694 86.6141C154.694 93.849 148.826 99.7164 141.592 99.7164C134.357 99.7164 128.489 93.849 128.489 86.6141C128.489 79.3792 134.357 73.5117 141.592 73.5117C148.826 73.5117 154.694 79.3792 154.694 86.6141" fill="#4D4C4E"/>
<path fill-rule="evenodd" clip-rule="evenodd" d="M219.534 97.4113C219.534 119.095 201.956 136.676 180.269 136.676C158.585 136.676 141.004 119.095 141.004 97.4113C141.004 75.7275 158.585 58.1462 180.269 58.1462C201.956 58.1462 219.534 75.7275 219.534 97.4113" fill="#4D4C4E"/>
<mask id="mask1" mask-type="alpha" maskUnits="userSpaceOnUse" x="110" y="93" width="58" height="58">
<path fill-rule="evenodd" clip-rule="evenodd" d="M110.465 93.9062V150.843H167.401V93.9062L110.465 93.9062V93.9062Z" fill="white"/>
</mask>
<g mask="url(#mask1)">
<path fill-rule="evenodd" clip-rule="evenodd" d="M167.4 122.375C167.4 138.097 154.653 150.843 138.931 150.843C123.209 150.843 110.463 138.097 110.463 122.375C110.463 106.653 123.209 93.9062 138.931 93.9062C154.653 93.9062 167.4 106.653 167.4 122.375" fill="#4D4C4E"/>
</g>
<path fill-rule="evenodd" clip-rule="evenodd" d="M143.228 159.009C143.228 167.569 136.286 174.511 127.726 174.511C119.165 174.511 112.223 167.569 112.223 159.009C112.223 150.448 119.165 143.506 127.726 143.506C136.286 143.506 143.228 150.448 143.228 159.009" fill="#4D4C4E"/>
<path fill-rule="evenodd" clip-rule="evenodd" d="M384.43 125.449C384.43 134.516 377.08 141.869 368.01 141.869C358.944 141.869 351.594 134.516 351.594 125.449C351.594 116.383 358.944 109.03 368.01 109.03C377.08 109.03 384.43 116.383 384.43 125.449" fill="#4D4C4E"/>
<path fill-rule="evenodd" clip-rule="evenodd" d="M180.836 115.707C180.836 120.58 176.884 124.532 172.01 124.532C167.137 124.532 163.188 120.58 163.188 115.707C163.188 110.833 167.137 106.881 172.01 106.881C176.884 106.881 180.836 110.833 180.836 115.707" fill="#4D4C4E"/>
<path fill-rule="evenodd" clip-rule="evenodd" d="M335.825 105.815C335.825 110.709 331.859 114.675 326.964 114.675C322.07 114.675 318.104 110.709 318.104 105.815C318.104 100.921 322.07 96.9543 326.964 96.9543C331.859 96.9543 335.825 100.921 335.825 105.815" fill="#4D4C4E"/>
<path fill-rule="evenodd" clip-rule="evenodd" d="M302.951 149.725C302.951 155.02 298.657 159.315 293.362 159.315C288.067 159.315 283.772 155.02 283.772 149.725C283.772 144.43 288.067 140.135 293.362 140.135C298.657 140.135 302.951 144.43 302.951 149.725" fill="#4D4C4E"/>
<path fill-rule="evenodd" clip-rule="evenodd" d="M267.686 65.9817C267.686 73.098 261.916 78.8678 254.8 78.8678C247.68 78.8678 241.914 73.098 241.914 65.9817C241.914 58.8655 247.68 53.0957 254.8 53.0957C261.916 53.0957 267.686 58.8655 267.686 65.9817" fill="#4D4C4E"/>
<path fill-rule="evenodd" clip-rule="evenodd" d="M361.059 125.91C361.059 131.24 356.737 135.562 351.407 135.562C346.076 135.562 341.758 131.24 341.758 125.91C341.758 120.58 346.076 116.258 351.407 116.258C356.737 116.258 361.059 120.58 361.059 125.91" fill="#4D4C4E"/>
<path fill-rule="evenodd" clip-rule="evenodd" d="M292.893 141.33C292.893 146.033 289.081 149.842 284.382 149.842C279.679 149.842 275.87 146.033 275.87 141.33C275.87 136.628 279.679 132.819 284.382 132.819C289.081 132.819 292.893 136.628 292.893 141.33" fill="#4D4C4E"/>
<path fill-rule="evenodd" clip-rule="evenodd" d="M303.577 61.4364C303.577 66.0829 299.809 69.8503 295.159 69.8503C290.513 69.8503 286.745 66.0829 286.745 61.4364C286.745 56.7899 290.513 53.019 295.159 53.019C299.809 53.019 303.577 56.7899 303.577 61.4364" fill="#4D4C4E"/>
<path fill-rule="evenodd" clip-rule="evenodd" d="M316.018 152.023C316.018 156.725 312.205 160.535 307.506 160.535C302.804 160.535 298.995 156.725 298.995 152.023C298.995 147.321 302.804 143.512 307.506 143.512C312.205 143.512 316.018 147.321 316.018 152.023" fill="#4D4C4E"/>
<path fill-rule="evenodd" clip-rule="evenodd" d="M282.257 102.217C282.257 114.032 272.678 123.615 260.86 123.615C249.045 123.615 239.465 114.032 239.465 102.217C239.465 90.4017 249.045 80.8192 260.86 80.8192C272.678 80.8192 282.257 90.4017 282.257 102.217" fill="#4D4C4E"/>
<path fill-rule="evenodd" clip-rule="evenodd" d="M321.306 53.3451C321.306 58.8881 316.813 63.3812 311.27 63.3812C305.727 63.3812 301.234 58.8881 301.234 53.3451C301.234 47.8021 305.727 43.3091 311.27 43.3091C316.813 43.3091 321.306 47.8021 321.306 53.3451" fill="#4D4C4E"/>
<path fill-rule="evenodd" clip-rule="evenodd" d="M354.286 56.4299C354.286 63.6473 348.436 69.5008 341.215 69.5008C333.998 69.5008 328.148 63.6473 328.148 56.4299C328.148 49.2124 333.998 43.359 341.215 43.359C348.436 43.359 354.286 49.2124 354.286 56.4299" fill="#4D4C4E"/>
<path fill-rule="evenodd" clip-rule="evenodd" d="M247.731 97.5184C247.731 102.472 243.716 106.487 238.763 106.487C233.809 106.487 229.794 102.472 229.794 97.5184C229.794 92.5649 233.809 88.5498 238.763 88.5498C243.716 88.5498 247.731 92.5649 247.731 97.5184" fill="#4D4C4E"/>
<path fill-rule="evenodd" clip-rule="evenodd" d="M295.731 155.821C295.731 163.527 289.484 169.774 281.778 169.774C274.072 169.774 267.825 163.527 267.825 155.821C267.825 148.115 274.072 141.867 281.778 141.867C289.484 141.867 295.731 148.115 295.731 155.821" fill="#4D4C4E"/>
<path fill-rule="evenodd" clip-rule="evenodd" d="M202.953 61.5473C202.953 69.2148 196.737 75.4311 189.069 75.4311C181.402 75.4311 175.186 69.2148 175.186 61.5473C175.186 53.8799 181.402 47.6636 189.069 47.6636C196.737 47.6636 202.953 53.8799 202.953 61.5473" fill="#4D4C4E"/>
<path fill-rule="evenodd" clip-rule="evenodd" d="M384.232 77.3542C384.232 87.903 375.682 96.453 365.133 96.453C354.585 96.453 346.031 87.903 346.031 77.3542C346.031 66.8053 354.585 58.2553 365.133 58.2553C375.682 58.2553 384.232 66.8053 384.232 77.3542" fill="#4D4C4E"/>
<mask id="mask2" mask-type="alpha" maskUnits="userSpaceOnUse" x="354" y="90" width="31" height="31">
<path fill-rule="evenodd" clip-rule="evenodd" d="M384.466 120.212V90.2674L354.519 90.2674V120.212H384.466V120.212Z" fill="white"/>
</mask>
<g mask="url(#mask2)">
<path fill-rule="evenodd" clip-rule="evenodd" d="M384.467 105.24C384.467 113.51 377.762 120.212 369.495 120.212C361.224 120.212 354.519 113.51 354.519 105.24C354.519 96.9686 361.224 90.2674 369.495 90.2674C377.762 90.2674 384.467 96.9686 384.467 105.24" fill="#4D4C4E"/>
</g>
<path fill-rule="evenodd" clip-rule="evenodd" d="M234.282 51.812C234.282 59.1201 228.359 65.0434 221.051 65.0434C213.743 65.0434 207.82 59.1201 207.82 51.812C207.82 44.5038 213.743 38.5806 221.051 38.5806C228.359 38.5806 234.282 44.5038 234.282 51.812" fill="#4D4C4E"/>
<path fill-rule="evenodd" clip-rule="evenodd" d="M336.23 146.582C336.23 153.824 330.359 159.695 323.117 159.695C315.872 159.695 310.001 153.824 310.001 146.582C310.001 139.34 315.872 133.469 323.117 133.469C330.359 133.469 336.23 139.34 336.23 146.582" fill="#4D4C4E"/>
<path fill-rule="evenodd" clip-rule="evenodd" d="M331.289 45.4499C331.289 52.4476 325.613 58.1231 318.616 58.1231C311.618 58.1231 305.942 52.4476 305.942 45.4499C305.942 38.4522 311.618 32.7766 318.616 32.7766C325.613 32.7766 331.289 38.4522 331.289 45.4499" fill="#4D4C4E"/>
<path fill-rule="evenodd" clip-rule="evenodd" d="M232.829 134.311C228.189 139.328 220.361 139.635 215.342 134.995C210.325 130.355 210.018 122.524 214.658 117.508C219.297 112.492 227.129 112.185 232.145 116.824C237.161 121.464 237.468 129.295 232.829 134.311" fill="#4D4C4E"/>
<path fill-rule="evenodd" clip-rule="evenodd" d="M272.691 126.478C272.691 131.285 268.794 135.181 263.987 135.181C259.177 135.181 255.28 131.285 255.28 126.478C255.28 121.671 259.177 117.774 263.987 117.774C268.794 117.774 272.691 121.671 272.691 126.478" fill="#4D4C4E"/>
<path fill-rule="evenodd" clip-rule="evenodd" d="M377.673 144.007C377.673 151.598 371.52 157.751 363.929 157.751C356.338 157.751 350.185 151.598 350.185 144.007C350.185 136.417 356.338 130.263 363.929 130.263C371.52 130.263 377.673 136.417 377.673 144.007" fill="#4D4C4E"/>
<mask id="mask3" mask-type="alpha" maskUnits="userSpaceOnUse" x="281" y="28" width="29" height="29">
<path fill-rule="evenodd" clip-rule="evenodd" d="M309.226 28H281.008L281.008 56.2192H309.226V28V28Z" fill="white"/>
</mask>
<g mask="url(#mask3)">
<path fill-rule="evenodd" clip-rule="evenodd" d="M309.226 42.1075C309.226 49.9006 302.908 56.218 295.115 56.218C287.326 56.218 281.008 49.9006 281.008 42.1075C281.008 34.3145 287.326 27.9971 295.115 27.9971C302.908 27.9971 309.226 34.3145 309.226 42.1075" fill="#4D4C4E"/>
</g>
<path fill-rule="evenodd" clip-rule="evenodd" d="M282.545 50.2816C282.545 58.4479 275.925 65.0688 267.758 65.0688C259.592 65.0688 252.971 58.4479 252.971 50.2816C252.971 42.1153 259.592 35.4944 267.758 35.4944C275.925 35.4944 282.545 42.1153 282.545 50.2816" fill="#4D4C4E"/>
<path fill-rule="evenodd" clip-rule="evenodd" d="M178.149 134.99C178.149 139.692 174.337 143.502 169.638 143.502C164.935 143.502 161.126 139.692 161.126 134.99C161.126 130.288 164.935 126.478 169.638 126.478C174.337 126.478 178.149 130.288 178.149 134.99" fill="#4D4C4E"/>
<path fill-rule="evenodd" clip-rule="evenodd" d="M158.102 152.567C158.102 158.34 153.421 163.021 147.647 163.021C141.874 163.021 137.196 158.34 137.196 152.567C137.196 146.793 141.874 142.112 147.647 142.112C153.421 142.112 158.102 146.793 158.102 152.567" fill="#4D4C4E"/>
<path fill-rule="evenodd" clip-rule="evenodd" d="M215.117 132.911C215.117 146.485 204.115 157.487 190.541 157.487C176.972 157.487 165.969 146.485 165.969 132.911C165.969 119.338 176.972 108.336 190.541 108.336C204.115 108.336 215.117 119.338 215.117 132.911" fill="#4D4C4E"/>
<path fill-rule="evenodd" clip-rule="evenodd" d="M194.569 166.286C194.569 177.847 185.199 187.216 173.638 187.216C162.078 187.216 152.708 177.847 152.708 166.286C152.708 154.726 162.078 145.356 173.638 145.356C185.199 145.356 194.569 154.726 194.569 166.286" fill="#4D4C4E"/>
<path fill-rule="evenodd" clip-rule="evenodd" d="M202.695 159.8C202.695 166.359 197.378 171.675 190.82 171.675C184.262 171.675 178.946 166.359 178.946 159.8C178.946 153.242 184.262 147.926 190.82 147.926C197.378 147.926 202.695 153.242 202.695 159.8" fill="#4D4C4E"/>
<path fill-rule="evenodd" clip-rule="evenodd" d="M216.298 55.9143C216.298 66.6341 207.609 75.3236 196.889 75.3236C186.169 75.3236 177.48 66.6341 177.48 55.9143C177.48 45.1945 186.169 36.505 196.889 36.505C207.609 36.505 216.298 45.1945 216.298 55.9143" fill="#4D4C4E"/>
<path fill-rule="evenodd" clip-rule="evenodd" d="M255.834 48.9773C255.834 55.4727 250.57 60.7401 244.072 60.7401C237.576 60.7401 232.312 55.4727 232.312 48.9773C232.312 42.482 237.576 37.2145 244.072 37.2145C250.57 37.2145 255.834 42.482 255.834 48.9773" fill="#4D4C4E"/>
<path fill-rule="evenodd" clip-rule="evenodd" d="M255.834 73.7598C255.834 88.9237 243.541 101.22 228.374 101.22C213.21 101.22 200.917 88.9237 200.917 73.7598C200.917 58.5958 213.21 46.2993 228.374 46.2993C243.541 46.2993 255.834 58.5958 255.834 73.7598" fill="#4D4C4E"/>
<path fill-rule="evenodd" clip-rule="evenodd" d="M164.364 147.128C164.364 152.731 159.822 157.269 154.223 157.269C148.621 157.269 144.083 152.731 144.083 147.128C144.083 141.526 148.621 136.988 154.223 136.988C159.822 136.988 164.364 141.526 164.364 147.128" fill="#4D4C4E"/>
<path fill-rule="evenodd" clip-rule="evenodd" d="M241.144 125.362C232.88 133.999 219.178 134.306 210.541 126.042C201.9 117.778 201.597 104.075 209.861 95.4383C218.125 86.7976 231.827 86.4941 240.464 94.758C249.105 103.022 249.408 116.724 241.144 125.362" fill="#4D4C4E"/>
<path fill-rule="evenodd" clip-rule="evenodd" d="M293.362 137.22C293.362 142.927 288.736 147.556 283.025 147.556C277.318 147.556 272.689 142.927 272.689 137.22C272.689 131.513 277.318 126.884 283.025 126.884C288.736 126.884 293.362 131.513 293.362 137.22" fill="#4D4C4E"/>
<path fill-rule="evenodd" clip-rule="evenodd" d="M286.135 141.183C286.135 147.742 280.818 153.054 274.264 153.054C267.706 153.054 262.389 147.742 262.389 141.183C262.389 134.625 267.706 129.312 274.264 129.312C280.818 129.312 286.135 134.625 286.135 141.183" fill="#4D4C4E"/>
<path fill-rule="evenodd" clip-rule="evenodd" d="M362.011 152.333C362.011 171.599 346.393 187.216 327.127 187.216C307.861 187.216 292.243 171.599 292.243 152.333C292.243 133.066 307.861 117.449 327.127 117.449C346.393 117.449 362.011 133.066 362.011 152.333" fill="#4D4C4E"/>
<path fill-rule="evenodd" clip-rule="evenodd" d="M308.362 121.663C308.362 132.93 299.229 142.063 287.962 142.063C276.694 142.063 267.562 132.93 267.562 121.663C267.562 110.395 276.694 101.263 287.962 101.263C299.229 101.263 308.362 110.395 308.362 121.663" fill="#4D4C4E"/>
<path fill-rule="evenodd" clip-rule="evenodd" d="M365.276 176.233C365.276 181.128 361.303 185.101 356.409 185.101C351.511 185.101 347.538 181.128 347.538 176.233C347.538 171.336 351.511 167.363 356.409 167.363C361.303 167.363 365.276 171.336 365.276 176.233" fill="#4D4C4E"/>
<path fill-rule="evenodd" clip-rule="evenodd" d="M161.949 68.7609C161.949 73.7877 157.874 77.8586 152.851 77.8586C147.824 77.8586 143.75 73.7877 143.75 68.7609C143.75 63.7342 147.824 59.6633 152.851 59.6633C157.874 59.6633 161.949 63.7342 161.949 68.7609" fill="#4D4C4E"/>
<path fill-rule="evenodd" clip-rule="evenodd" d="M197.791 56.4299C197.791 67.1078 189.132 75.7659 178.455 75.7659C167.777 75.7659 159.118 67.1078 159.118 56.4299C159.118 45.752 167.777 37.0938 178.455 37.0938C189.132 37.0938 197.791 45.752 197.791 56.4299" fill="#4D4C4E"/>
<path fill-rule="evenodd" clip-rule="evenodd" d="M360.772 96.5186C360.772 127.345 335.785 152.333 304.958 152.333C274.132 152.333 249.144 127.345 249.144 96.5186C249.144 65.6919 274.132 40.7046 304.958 40.7046C335.785 40.7046 360.772 65.6919 360.772 96.5186" fill="#4D4C4E"/>
<path fill-rule="evenodd" clip-rule="evenodd" d="M341.08 400.007V368.612C341.08 341.378 324.64 318.002 301.156 307.809C295.561 330.683 274.983 347.681 250.383 347.681C225.783 347.681 205.205 330.683 199.609 307.809C176.126 318.002 159.685 341.378 159.685 368.612V400.007H198.057V413.96H302.708V400.007H341.08Z" fill="#EAC463"/>
<path opacity="0.2" fill-rule="evenodd" clip-rule="evenodd" d="M192.825 387.799C189.933 387.799 187.592 390.143 187.592 393.032V413.962H198.057V393.032C198.057 390.143 195.716 387.799 192.825 387.799" fill="#292929"/>
<path opacity="0.2" fill-rule="evenodd" clip-rule="evenodd" d="M307.941 387.799C305.049 387.799 302.708 390.143 302.708 393.032V413.962H313.173V393.032C313.173 390.143 310.833 387.799 307.941 387.799" fill="#292929"/>
<path fill-rule="evenodd" clip-rule="evenodd" d="M301.155 307.808C295.56 330.685 274.982 347.68 250.382 347.68C225.785 347.68 205.207 330.685 199.612 307.808C196.877 308.994 194.254 310.376 191.725 311.904C199.117 338.195 222.907 356.401 250.382 356.401C277.856 356.401 301.65 338.195 309.039 311.904C306.513 310.376 303.886 308.994 301.155 307.808" fill="#F1DCA0"/>
</svg>
